# xmcd
#
# Track frame offsets:
#	150
#	19580
#	39047
#	54287
#	82607
#	113747
#	128275
#	147100
#	193420
#	214735
#	242377
#	270067
#	286037
#	304175
#
# Disc length: 4605 seconds
# Revision: 1
# Processed by: cddbd v1.5.2PL0 Copyright (c) Steve Scherf et al.
# Submitted via: dBpowerAMP V12.0
#
DISCID=a011fb0e
DTITLE=Van Morrison - A Night in San Francisco [dBP-LITE-FLAC@]
DYEAR=1994
DGENRE=Blues
TTITLE0=Did Ye Get Healed?
TTITLE1=It's All in the Game/ Make It Real One More Time
TTITLE2=I've Been Working
TTITLE3=I Forgot That Love Existed
TTITLE4=Vanlose Stairway/ Trans-Euro Train/Fool for You
TTITLE5=You Make Me Feel So Free
TTITLE6=Beautiful Vision
TTITLE7=See Me Through/ Soldier of Fortune/Thank You Falettinme Be Mice Elf ...
TTITLE8=Ain't That Loving You Baby?
TTITLE9=Stormy Monday/ Have You Ever Loved a Woman?/No Rollin' Blues
TTITLE10=Help Me
TTITLE11=Good Morning Little Schoolgirl
TTITLE12=Tupelo Honey
TTITLE13=Moondance/ My Funny Valentine
EXTD=
EXTT0=
EXTT1=
EXTT2=
EXTT3=
EXTT4=
EXTT5=
EXTT6=
EXTT7=
EXTT8=
EXTT9=
EXTT10=
EXTT11=
EXTT12=
EXTT13=
PLAYORDER=
